<svg xmlns="http://www.w3.org/2000/svg" viewBox="0 0 1020 960">
<path d="M0 0 C0.201 3.716 0.152 4.772 -2 8 C-2.446 9.613 -2.89 11.227 -3.324 12.844 C-4.094 15.299 -5.089 17.581 -6.125 19.938 C-10.014 29.066 -12.926 38.554 -16.009 47.978 C-18.343 55.099 -20.712 62.199 -23.25 69.25 C-24.872 74.091 -25.479 77.92 -25 83 C-24.67 83.33 -24.34 83.66 -24 84 C-23.587 89.44 -24.124 94.782 -24.977 100.152 C-25 102 -25 102 -23 104 C-23.133 109.971 -25.486 115.106 -27.668 120.602 C-30.383 127.53 -32.692 134.5 -34.375 141.75 C-35.76 147.593 -37.807 153.086 -40.019 158.657 C-41.173 161.596 -42 163.811 -42 167 C-41.582 166.154 -41.165 165.309 -40.734 164.438 C-38.963 160.927 -37.116 157.461 -35.25 154 C-33.108 150.025 -31 146.043 -29.027 141.98 C-28.717 141.343 -28.407 140.706 -28.087 140.049 C-27.232 138.279 -26.387 136.505 -25.543 134.73 C-24 132 -24 132 -21 130 C-18.312 130.375 -18.312 130.375 -16 131 C-18.354 146.621 -25.072 161.871 -31 176.438 C-33.624 182.92 -35.962 189.477 -38.247 196.085 C-41.409 205.225 -44.725 214.306 -48.046 223.388 C-49.042 226.116 -50.035 228.845 -51.027 231.574 C-51.685 233.383 -52.342 235.191 -53 237 C-53.289 237.794 -53.577 238.588 -53.875 239.406 C-56.808 247.463 -59.762 255.498 -63 263.438 C-65.389 269.343 -67.579 275.301 -69.688 281.312 C-69.973 282.125 -70.259 282.937 -70.553 283.773 C-72.273 288.728 -73.845 293.71 -75.314 298.744 C-76.741 303.435 -78.54 307.946 -80.5 312.438 C-82.903 318.145 -84.714 323.994 -86.438 329.938 C-87.426 333.272 -88.55 336.482 -89.871 339.699 C-91.902 344.72 -93.787 349.781 -95.625 354.875 C-95.795 355.344 -95.795 355.344 -96.653 357.715 C-97.771 360.809 -98.886 363.904 -100 367 C-100.195 367.541 -100.195 367.541 -101.182 370.279 C-105.907 383.403 -110.548 396.552 -115.062 409.75 C-118.482 419.742 -122.067 429.654 -125.812 439.527 C-129.699 449.787 -133.293 460.142 -136.866 470.515 C-140.218 480.232 -143.676 489.878 -147.452 499.44 C-149.347 504.259 -151.121 509.106 -152.812 514 C-155.8 522.63 -159.092 531.14 -162.398 539.652 C-165.843 548.533 -169.179 557.437 -172.152 566.488 C-173.227 569.674 -174.364 572.836 -175.5 576 C-177.761 582.303 -179.917 588.629 -181.965 595.004 C-186.588 609.221 -186.588 609.221 -191.562 612.5 C-195.182 614.893 -195.931 616.726 -197 621 C-197.589 622.618 -198.217 624.222 -198.875 625.812 C-199.182 626.582 -199.489 627.352 -199.805 628.145 C-201.318 630.494 -202.26 630.758 -205 631 C-205.66 630.67 -206.32 630.34 -207 630 C-206.839 629.285 -206.678 628.569 -206.513 627.832 C-204.24 615.278 -204.184 598.631 -210 587 C-210.918 589.246 -211.821 591.497 -212.711 593.754 C-213.653 596.127 -214.619 598.484 -215.602 600.84 C-218.828 608.753 -220.978 615.323 -220 624 C-219.919 624.812 -219.838 625.624 -219.754 626.461 C-219.591 627.973 -219.413 629.484 -219.219 630.992 C-218.928 633.663 -219 636.316 -219 639 C-217.621 641.757 -215.625 642.463 -213 644 C-210.008 646.992 -210.44 650.529 -210.125 654.562 C-209.566 660.752 -208.716 665.688 -205.754 671.23 C-204.578 673.992 -205.143 676.213 -206 679 C-212.222 680.037 -212.222 680.037 -215.875 676.312 C-220.319 670.903 -220.646 666.43 -220.938 659.562 C-221.426 649.599 -223.943 645.137 -231 638 C-232.424 636.034 -233.799 634.033 -235.125 632 C-235.772 631.009 -236.419 630.017 -237.086 628.996 C-239.531 625.168 -241.962 621.331 -244.359 617.473 C-246.101 614.847 -248.006 612.438 -250 610 C-251.092 608.611 -252.176 607.215 -253.25 605.812 C-253.771 605.138 -254.292 604.464 -254.828 603.77 C-256 602 -256 602 -256 600 C-256.66 600 -257.32 600 -258 600 C-257.977 600.626 -257.954 601.253 -257.93 601.898 C-257.912 602.716 -257.894 603.533 -257.875 604.375 C-257.852 605.187 -257.829 605.999 -257.805 606.836 C-258 609 -258 609 -260 611 C-263.619 610.977 -264.633 610.633 -266.477 607.453 C-266.856 606.396 -267.235 605.339 -267.625 604.25 C-268.76 601.158 -269.803 598.326 -271.508 595.504 C-273.208 592.651 -274.181 589.829 -275.25 586.688 C-276.891 582.215 -278.405 579.2 -281.812 575.875 C-285.678 571.943 -285.363 568.984 -284.988 563.676 C-285.004 560.057 -286.213 557.833 -287.992 554.754 C-289.406 552.293 -290.136 549.699 -291 547 C-291.952 544.538 -292.939 542.091 -293.93 539.645 C-294.967 537.081 -295.984 534.51 -297 531.938 C-298.567 528.013 -300.252 524.155 -301.992 520.305 C-303.453 516.964 -304.763 513.567 -306.07 510.164 C-307 508 -307 508 -309 505 C-309.667 502.667 -310.333 500.333 -311 498 C-311.33 497.505 -311.33 497.505 -313 495 C-313.582 492.96 -314.004 490.916 -314.438 488.84 C-315 487 -315 487 -317 485 C-317.562 483.16 -317.562 483.16 -318 481.062 C-318.639 478.01 -319.191 476.713 -321 474 C-321.667 471.667 -322.333 469.333 -323 467 C-323.33 466.505 -323.33 466.505 -325 464 C-325.667 461.667 -326.333 459.333 -327 457 C-327.33 456.505 -327.33 456.505 -329 454 C-329.5 452.682 -329.954 451.346 -330.375 450 C-331.51 446.469 -332.719 442.981 -334 439.5 C-335.53 435.33 -336.965 431.139 -338.348 426.918 C-338.863 425.404 -339.45 423.915 -340.062 422.438 C-341 420 -341 420 -341.855 416.387 C-342.963 411.894 -344.539 407.669 -346.25 403.375 C-346.558 402.591 -346.866 401.807 -347.183 400.999 C-349.071 396.226 -351.061 391.512 -353.125 386.812 C-356.232 379.689 -358.657 372.402 -361 365 C-361.33 365 -361.66 365 -362 365 C-362.173 365.612 -362.346 366.223 -362.524 366.854 C-364.278 372.892 -366.358 378.688 -368.75 384.5 C-369.459 386.246 -370.167 387.992 -370.875 389.738 C-371.229 390.612 -371.584 391.485 -371.949 392.385 C-373.591 396.47 -375.169 400.579 -376.75 404.688 C-378.728 409.808 -380.753 414.879 -383.039 419.871 C-385.142 424.53 -387.056 429.272 -389 434 C-389.317 434.766 -389.634 435.531 -389.961 436.32 C-392.603 442.802 -394.994 449.375 -397.363 455.961 C-399.059 460.627 -400.912 465.175 -402.96 469.698 C-408.66 482.314 -413.919 495.125 -419 508 C-419.48 509.183 -419.959 510.367 -420.453 511.586 C-423.293 518.596 -425.982 525.64 -428.562 532.75 C-430.77 538.824 -433.121 544.746 -435.883 550.594 C-437.377 553.813 -438.683 557.093 -439.977 560.397 C-440.933 562.828 -441.899 565.255 -442.871 567.68 C-444.253 571.129 -445.629 574.581 -447 578.035 C-447.667 579.711 -448.333 581.387 -449 583.062 C-449.33 583.896 -449.66 584.729 -450 585.588 C-453.311 593.897 -456.86 602.067 -461 610 C-461.248 610.474 -461.248 610.474 -462.5 612.875 C-464.899 616.274 -466.901 617 -471 617 C-470.392 612.655 -469.738 608.324 -469 604 C-470.32 603.67 -471.64 603.34 -473 603 C-475.953 606.387 -478.562 609.785 -481 613.562 C-482.742 616.241 -484.257 618.251 -486.562 620.5 C-491.579 625.645 -494.317 632.413 -497 639 C-497.56 640.314 -498.122 641.626 -498.688 642.938 C-499.121 643.948 -499.554 644.959 -500 646 C-500.66 646 -501.32 646 -502 646 C-502.268 646.731 -502.536 647.462 -502.812 648.215 C-503.974 650.939 -505.312 653.137 -507 655.562 C-508.524 657.761 -509.907 659.797 -511.023 662.23 C-512.468 664.848 -514.166 664.702 -517 665 C-518.45 662.099 -517.454 660.44 -516.562 657.375 C-516.275 656.372 -515.988 655.369 -515.691 654.336 C-515.577 653.951 -515.577 653.951 -515 652 C-518.456 655.114 -520.469 658.33 -522.625 662.438 C-523.215 663.55 -523.806 664.662 -524.414 665.809 C-525.758 668.514 -526.93 671.179 -528 674 C-534.635 691.09 -534.635 691.09 -539 694 C-539.99 694 -540.98 694 -542 694 C-541.683 687.255 -541.324 681.984 -538 676 C-537.414 673.76 -536.953 671.522 -536.527 669.246 C-536 667 -536 667 -534.969 664.68 C-533.743 661.29 -533.684 658.285 -533.562 654.688 C-533.292 648.862 -532.331 644.341 -530 639 C-529.056 635.139 -529.044 631.689 -529.188 627.75 C-529.264 622.59 -527.987 619.167 -525.875 614.531 C-524.883 611.663 -524.864 609.521 -525 606.5 C-525.289 599.445 -522.637 594.143 -519.438 588 C-517.804 584.591 -516.79 581.191 -515.742 577.566 C-514.019 571.608 -511.992 565.968 -509.438 560.312 C-507.024 554.669 -506.093 549.31 -505.457 543.227 C-504.994 539.956 -504.136 537.095 -503 534 C-504.86 535.86 -505.565 538.608 -506.562 541 C-508.962 546.684 -511.493 552.295 -514.125 557.875 C-514.449 558.563 -514.774 559.252 -515.108 559.961 C-517.054 564.067 -519.057 568.14 -521.109 572.194 C-523.144 576.319 -524.852 580.562 -526.438 584.875 C-527.511 587.791 -528.708 590.612 -530 593.438 C-531.345 596.402 -532.469 599.331 -533.438 602.438 C-535.07 607.57 -537.49 612.248 -540 617 C-541.32 617 -542.64 617 -544 617 C-544.729 607.869 -544.006 601.634 -539.461 593.633 C-538.197 591.356 -537.389 589.441 -536.75 586.938 C-536 584 -536 584 -534 581 C-533.507 579.351 -533.02 577.7 -532.572 576.039 C-529.478 565.008 -525.27 554.233 -520.558 543.803 C-518.203 538.567 -516.173 533.248 -514.199 527.858 C-512.596 523.51 -510.855 519.25 -509 515 C-504.677 505.068 -501.012 494.909 -497.438 484.688 C-495.992 480.595 -494.434 476.665 -492.562 472.75 C-489.861 467.04 -487.956 461.117 -486.055 455.104 C-485.816 454.358 -485.578 453.612 -485.332 452.844 C-485.123 452.175 -484.914 451.507 -484.698 450.818 C-484 449 -484 449 -482 446 C-481.875 443.312 -481.875 443.312 -482 441 C-486.171 451.094 -490.313 461.199 -494.438 471.312 C-494.909 472.468 -495.381 473.624 -495.867 474.815 C-498.4 481.034 -500.903 487.264 -503.367 493.511 C-511.733 514.683 -511.733 514.683 -516 518 C-517.32 518 -518.64 518 -520 518 C-519.515 512.547 -517.979 507.941 -516.043 502.832 C-514.777 499.394 -513.742 495.913 -512.711 492.398 C-510.809 485.982 -508.543 479.773 -506.027 473.574 C-502.963 465.896 -500.308 458.058 -497.57 450.259 C-495.976 445.731 -494.356 441.212 -492.719 436.699 C-492.321 435.602 -491.924 434.506 -491.514 433.375 C-490.732 431.218 -489.947 429.061 -489.159 426.906 C-487.157 421.382 -485.321 415.852 -483.673 410.213 C-482.765 407.225 -481.656 404.338 -480.5 401.438 C-479.093 397.898 -477.771 394.357 -476.586 390.738 C-474.921 385.681 -473.036 380.719 -471.125 375.75 C-470.775 374.832 -470.425 373.914 -470.064 372.968 C-468.54 368.976 -467.006 364.989 -465.402 361.027 C-463.073 355.221 -461.431 350.244 -461 344 C-460.466 338.931 -459.301 334.811 -457.312 330.125 C-454.987 324.534 -452.858 318.909 -450.875 313.188 C-448.429 306.16 -445.81 299.245 -442.891 292.398 C-439.568 284.567 -436.619 276.625 -433.699 268.637 C-430.723 260.496 -427.71 252.388 -424.09 244.508 C-422.94 241.862 -421.915 239.179 -420.887 236.484 C-418.307 229.765 -415.393 223.749 -411 218 C-407.962 219.078 -407.163 219.431 -406.25 222.625 C-406.168 223.409 -406.085 224.192 -406 225 C-395.93 222.206 -385.889 219.386 -376 216 C-369.49 213.772 -362.938 211.794 -356.312 209.938 C-335.113 203.987 -335.113 203.987 -327.336 200.23 C-324 199 -324 199 -321.625 199.379 C-319.074 201.924 -319.287 204.407 -319 207.938 C-318.329 214.759 -316.711 220.67 -314 227 C-313.34 226.01 -313.34 226.01 -310 221 C-306.414 224.115 -305.039 226.913 -303.5 231.375 C-299.67 241.855 -299.67 241.855 -295.371 245.309 C-293.396 247.745 -293.906 249.362 -294.188 252.438 C-294.371 258.77 -292.557 262.6 -289.523 268.055 C-287.657 271.663 -286.662 275.198 -285.738 279.137 C-283.939 286.114 -281.349 292.814 -278.688 299.5 C-275.739 306.988 -272.997 314.531 -270.359 322.133 C-269.209 325.439 -267.987 328.716 -266.75 331.991 C-265.495 335.352 -264.312 338.739 -263.125 342.125 C-261.204 347.59 -259.27 353.048 -257.312 358.5 C-255.756 362.848 -254.253 367.206 -252.812 371.594 C-251.749 374.744 -250.623 377.871 -249.5 381 C-247.052 387.831 -244.678 394.657 -242.637 401.621 C-241.056 406.908 -239.277 412.111 -237.438 417.312 C-237.286 417.746 -237.286 417.746 -236.518 419.939 C-235.349 423.261 -234.186 426.557 -232.824 429.805 C-231.931 432.183 -231.601 434.287 -231.375 436.812 C-231.3 437.603 -231.225 438.393 -231.148 439.207 C-231.099 439.799 -231.05 440.39 -231 441 C-230.34 441 -229.68 441 -229 441 C-228.753 439.886 -228.505 438.773 -228.25 437.625 C-227.446 434.408 -226.425 431.398 -225.172 428.328 C-224.817 427.454 -224.462 426.58 -224.097 425.68 C-223.735 424.796 -223.373 423.911 -223 423 C-217.556 409.594 -212.223 396.347 -208.711 382.277 C-208 380 -208 380 -206 377 C-205.418 374.96 -204.996 372.916 -204.562 370.84 C-204 369 -204 369 -202 367 C-201.254 365.23 -201.254 365.23 -200.562 363.188 C-199.374 359.858 -197.948 356.968 -196 354 C-194.68 354.33 -193.36 354.66 -192 355 C-192 355.66 -192 356.32 -192 357 C-189.099 355.549 -189.427 353.658 -188.754 350.676 C-187.817 347.349 -186.516 344.253 -185.188 341.062 C-182.967 335.698 -181.128 330.34 -179.562 324.75 C-177.337 316.814 -174.565 309.143 -171.648 301.438 C-169.004 294.41 -166.75 287.301 -164.746 280.066 C-164 278 -164 278 -162 276 C-161.438 274.125 -161.438 274.125 -161 272 C-160.393 269.051 -160.201 268.201 -158 266 C-157.289 264.152 -157.289 264.152 -156.625 261.938 C-155.089 257.113 -153.113 252.595 -151 248 C-150.248 246.313 -149.498 244.626 -148.75 242.938 C-148.167 241.625 -147.583 240.312 -147 239 C-146.34 239 -145.68 239 -145 239 C-144.34 241.64 -143.68 244.28 -143 247 C-142.629 245.824 -142.257 244.649 -141.875 243.438 C-140.006 237.803 -137.752 232.333 -135.5 226.844 C-134.126 223.414 -132.962 219.934 -131.812 216.423 C-129.991 210.991 -127.953 205.632 -125.961 200.26 C-124.016 194.963 -122.232 189.657 -120.656 184.238 C-118.743 177.713 -116.423 171.424 -113.77 165.164 C-113 163 -113 163 -113 160 C-113.99 159.34 -114.98 158.68 -116 158 C-114.932 150.437 -110.953 139.672 -104.469 135.289 C-102.261 134.584 -100.31 134.128 -98 134 C-96.647 138.06 -97.84 139.799 -99.375 143.75 C-101.227 148.53 -102.549 152.876 -103 158 C-102.67 158.33 -102.34 158.66 -102 159 C-101.795 158.41 -101.795 158.41 -100.758 155.422 C-100.214 153.865 -99.669 152.307 -99.125 150.75 C-98.856 149.973 -98.586 149.195 -98.309 148.395 C-98.044 147.64 -97.78 146.886 -97.508 146.109 C-97.267 145.418 -97.026 144.727 -96.778 144.015 C-96 142 -96 142 -94.953 139.962 C-94 138 -94 138 -93.25 134.5 C-92.095 129.558 -89.769 125.3 -87.445 120.816 C-85.798 117.607 -84.413 114.318 -83 111 C-82.152 109.33 -81.297 107.664 -80.438 106 C-78.923 103.026 -77.66 100.228 -76.812 97 C-76 94 -76 94 -74 92 C-73.587 90.824 -73.175 89.649 -72.75 88.438 C-71 85 -71 85 -67.812 84.062 C-66.884 84.042 -65.956 84.021 -65 84 C-63.75 88.75 -63.75 88.75 -66 91 C-68.21 95.612 -69.757 100.266 -71.156 105.18 C-73.543 113.159 -76.466 120.878 -79.57 128.602 C-81.067 132.383 -82.401 135.951 -83 140 C-79.983 136.385 -77.483 132.661 -75.062 128.625 C-72.955 125.132 -70.852 121.685 -68.375 118.438 C-65.643 114.72 -63.745 110.64 -61.727 106.504 C-57.191 97.299 -52.461 88.193 -47 79.5 C-40.233 68.719 -34.603 57.295 -28.958 45.897 C-26.635 41.221 -24.22 36.6 -21.75 32 C-15.199 19.797 -15.199 19.797 -12.5 13.5 C-5.875 -1.958 -5.875 -1.958 0 0 Z M-106 166 C-105 168 -105 168 -105 168 Z M-147 250 C-147.041 252 -147.043 254 -147 256 C-146.34 255.67 -145.68 255.34 -145 255 C-145 253.02 -145 251.04 -145 249 C-146 249 -146 249 -147 250 Z M-151 261 C-150.67 262.32 -150.34 263.64 -150 265 C-149.67 263.68 -149.34 262.36 -149 261 C-149.66 261 -150.32 261 -151 261 Z M-195 362 C-195.041 363.666 -195.043 365.334 -195 367 C-194.34 367 -193.68 367 -193 367 C-193 365.02 -193 363.04 -193 361 C-194 361 -194 361 -195 362 Z M-198 373 C-197 375 -197 375 -197 375 Z M-479 433 C-478 435 -478 435 -478 435 Z M-319 457 C-318.67 458.32 -318.34 459.64 -318 461 C-317.67 459.68 -317.34 458.36 -317 457 C-317.66 457 -318.32 457 -319 457 Z M-315 466 C-315 467.98 -315 469.96 -315 472 C-314.01 472 -313.02 472 -312 472 C-312.66 470.02 -313.32 468.04 -314 466 C-314.33 466 -314.66 466 -315 466 Z M-311 476 C-311 477.98 -311 479.96 -311 482 C-310.01 482.33 -309.02 482.66 -308 483 C-308.33 480.69 -308.66 478.38 -309 476 C-309.66 476 -310.32 476 -311 476 Z M-427 478 C-426.67 479.32 -426.34 480.64 -426 482 C-425.67 480.68 -425.34 479.36 -425 478 C-425.66 478 -426.32 478 -427 478 Z M-430 485 C-431.618 488.426 -432.341 490.381 -431 494 C-428.238 491.238 -428.421 488.793 -428 485 C-428.66 485 -429.32 485 -430 485 Z M-307 486 C-307 488.31 -307 490.62 -307 493 C-306.01 493 -305.02 493 -304 493 C-304.75 487.125 -304.75 487.125 -307 486 Z M-434.367 495.984 C-436.342 499.631 -437.73 503.352 -439.125 507.25 C-441.878 514.878 -441.878 514.878 -443 516 C-443.041 517.666 -443.043 519.334 -443 521 C-440.45 519.725 -440.286 518.782 -439.188 516.188 C-438.846 515.382 -438.504 514.576 -438.152 513.746 C-437.962 513.293 -437.962 513.293 -437 511 C-436.548 509.98 -436.095 508.961 -435.629 507.91 C-435.174 506.867 -434.719 505.824 -434.25 504.75 C-433.822 503.775 -433.394 502.801 -432.953 501.797 C-431.998 498.995 -431.807 496.933 -432 494 C-433 494 -433 494 -434.367 495.984 Z M-303 496 C-304.255 499.766 -303.371 501.372 -302 505 C-301.34 505 -300.68 505 -300 505 C-300.124 503.701 -300.247 502.401 -300.375 501.062 C-300.445 500.332 -300.514 499.601 -300.586 498.848 C-301 497 -301 497 -303 496 Z M-300 506 C-299.886 507.48 -299.759 508.959 -299.625 510.438 C-299.555 511.261 -299.486 512.085 -299.414 512.934 C-299 515 -299 515 -297 516 C-296.969 515.361 -296.969 515.361 -296.812 512.125 C-296.778 511.406 -296.743 510.686 -296.707 509.945 C-297 508 -297 508 -300 506 Z M-296 519 C-296 520.98 -296 522.96 -296 525 C-295.01 525 -294.02 525 -293 525 C-293 523.35 -293 521.7 -293 520 C-293.99 519.67 -294.98 519.34 -296 519 Z " fill="currentColor" transform="translate(948,114)"/>
<path d="M0 0 C-0.625 5.75 -0.625 5.75 -4 8 C-5.675 8.444 -7.366 8.832 -9.062 9.188 C-19.919 11.776 -30.348 16.247 -40.469 20.906 C-44.269 22.548 -48.137 24.013 -52 25.5 C-58.775 28.108 -65.499 30.75 -72 34 C-66.583 33.6 -62.051 33.048 -57 31 C-54.668 30.924 -52.332 30.909 -50 31 C-50 34.517 -50.824 35.371 -53 38 C-42.292 34.818 -31.605 31.583 -20.962 28.188 C-14.93 26.272 -8.87 24.463 -2.781 22.736 C0.523 21.786 3.726 20.74 6.926 19.48 C10.483 18.109 14.019 17.292 17.746 16.519 C21.447 15.667 24.984 14.385 28.562 13.125 C39.528 9.37 50.642 6.422 62.082 4.492 C64 4 64 4 67 2 C73.656 1.656 73.656 1.656 75 3 C75.562 6.466 75.488 7.54 72.883 9.996 C69.83 12.118 66.96 13.401 63.5 14.75 C56.268 17.679 47.569 21.431 42 27 C57.804 25.987 73.143 24.224 88.125 18.887 C90.917 18.026 93.034 17.761 95.938 17.812 C96.802 17.825 97.667 17.838 98.559 17.852 C101 18 101 18 104.5 18.688 C110.426 19.217 115.643 16.896 121.125 14.812 C124.883 13.751 128.103 13.866 132 14 C132.33 15.65 132.66 17.3 133 19 C132.397 19.182 132.397 19.182 129.344 20.102 C114.425 24.74 114.425 24.74 108.918 29.555 C104.817 32.645 99.755 34.163 95 36 C94.443 36.248 94.443 36.248 91.625 37.5 C84.626 40.396 77.476 43.127 70.125 44.973 C65.861 46.374 66.311 47.903 65 52 C60.142 55.239 55.335 57.041 49.75 58.625 C42.371 60.752 42.371 60.752 39 63 C36.738 63.633 36.738 63.633 34.312 64.125 C33.504 64.293 32.696 64.46 31.863 64.633 C31.556 64.693 31.556 64.693 30 65 C31.258 65.041 32.516 65.082 33.812 65.125 C34.52 65.148 35.228 65.171 35.957 65.195 C38 65 38 65 41 63 C43.234 62.402 43.234 62.402 45.75 61.938 C46.629 61.774 47.508 61.61 48.414 61.441 C51.604 60.897 54.791 60.419 58 60 C59 63 59 63 57.625 64.875 C54.29 67.575 51.545 67.818 47.387 68.504 C44.477 69.109 42.499 70.422 40 72 C38.001 72.586 36.004 73.049 33.965 73.473 C32 74 32 74 30.047 75 C27.779 76.108 25.797 76.517 23.312 76.938 C16.322 78.251 9.802 80.61 3.215 83.254 C0.587 84.139 -2.085 84.769 -4.777 85.427 C-8.667 86.43 -12.486 87.655 -16.312 88.875 C-17.143 89.139 -17.974 89.403 -18.83 89.675 C-34.825 94.793 -34.825 94.793 -41 98 C-35.655 96.894 -30.431 95.581 -25.188 94.062 C-7.628 88.98 -7.628 88.98 1 88 C1 88.99 1 89.98 1 91 C-0.65 91.33 -2.3 91.66 -4 92 C-4.33 92.99 -4.66 93.98 -5 95 C-6.75 95.844 -6.75 95.844 -9 96.5 C-9.405 96.624 -9.405 96.624 -11.457 97.25 C-12.296 97.498 -13.135 97.745 -14 98 C-18.129 99.297 -22.123 100.561 -26 102.5 C-29.883 104.442 -33.872 105.679 -38 107 C-39.98 107.665 -41.959 108.332 -43.938 109 C-48.574 110.553 -53.232 111.974 -57.941 113.289 C-60 114 -60 114 -63 116 C-64.828 116.474 -66.658 116.941 -68.496 117.371 C-77.95 119.746 -87.624 122.642 -96.562 126.562 C-100 128 -100 128 -103.379 128.805 C-109.514 130.293 -115.424 132.477 -121.375 134.562 C-121.969 134.768 -121.969 134.768 -124.973 135.811 C-136.109 139.69 -136.109 139.69 -138.875 148.125 C-141.99 157.325 -145.41 166.39 -148.938 175.438 C-149.462 176.786 -149.987 178.135 -150.512 179.484 C-151.534 182.111 -152.558 184.738 -153.583 187.364 C-158.252 199.342 -162.868 211.296 -166.844 223.524 C-168.922 229.885 -171.273 236.118 -173.703 242.352 C-175.076 246.214 -176.067 250.012 -177 254 C-171.373 240.019 -171.373 240.019 -168.75 233.062 C-166.327 226.712 -163.695 220.454 -161.062 214.188 C-158.211 207.396 -155.406 200.605 -152.875 193.688 C-150.649 187.662 -148.316 181.691 -145.875 175.75 C-145.55 174.939 -145.225 174.128 -144.89 173.292 C-143.166 169.15 -141.681 165.787 -138 163 C-135.75 163.25 -135.75 163.25 -134 164 C-133.799 167.716 -133.848 168.772 -136 172 C-136.527 174.199 -136.527 174.199 -136.938 176.688 C-137.816 181.357 -139.19 185.614 -141 190 C-149.097 209.746 -156.126 229.887 -162.708 250.184 C-164.446 255.488 -166.383 260.686 -168.438 265.875 C-171.847 274.568 -175.1 283.284 -178.045 292.146 C-180.207 298.608 -182.418 305.053 -184.625 311.5 C-184.889 312.272 -185.153 313.043 -185.425 313.838 C-189.839 326.72 -194.39 339.546 -199.039 352.345 C-200.503 356.39 -201.943 360.443 -203.375 364.5 C-203.602 365.14 -203.828 365.78 -204.062 366.44 C-205.229 369.751 -206.354 373.073 -207.445 376.41 C-208.964 380.989 -210.712 385.458 -212.5 389.938 C-214.664 395.423 -216.698 400.864 -218.273 406.552 C-219.033 409.11 -219.91 411.594 -220.832 414.098 C-221.186 415.063 -221.541 416.029 -221.906 417.024 C-222.267 418.006 -222.628 418.988 -223 420 C-223.667 421.833 -224.334 423.666 -225 425.5 C-226.333 429.167 -227.667 432.833 -229 436.5 C-229.327 437.4 -229.654 438.301 -229.991 439.229 C-230.685 441.135 -231.383 443.04 -232.083 444.943 C-232.259 445.422 -232.259 445.422 -233.148 447.844 C-233.465 448.702 -233.781 449.559 -234.107 450.443 C-235.312 453.893 -236.317 457.385 -237.289 460.906 C-238 463 -238 463 -240 466 C-240.501 467.297 -240.955 468.612 -241.375 469.938 C-241.505 470.342 -241.505 470.342 -242.164 472.387 C-242.44 473.249 -242.716 474.111 -243 475 C-243.581 476.751 -244.164 478.501 -244.75 480.25 C-245.084 481.252 -245.418 482.253 -245.762 483.285 C-252.316 502.949 -252.316 502.949 -253.167 505.495 C-253.724 507.171 -254.279 508.848 -254.83 510.526 C-255.091 511.319 -255.352 512.112 -255.621 512.93 C-255.851 513.632 -256.081 514.334 -256.318 515.058 C-256.959 516.884 -257.726 518.664 -258.5 520.438 C-259.643 523.151 -260.532 525.663 -261.344 528.473 C-263.392 535.403 -265.728 542.232 -268.039 549.078 C-269.904 554.631 -271.697 560.193 -273.35 565.813 C-282.165 595.474 -282.165 595.474 -291 603 C-294 602 -294 602 -294.625 599.25 C-295.013 595.89 -294.804 594.759 -293 592 C-294.98 591.67 -296.96 591.34 -299 591 C-298.39 584.614 -296.949 578.766 -295.125 572.625 C-294.868 571.743 -294.612 570.862 -294.348 569.953 C-293.573 567.3 -292.788 564.649 -292 562 C-291.738 561.115 -291.476 560.231 -291.206 559.319 C-289.877 554.853 -288.504 550.412 -287 546 C-285.215 540.7 -283.568 535.368 -282 530 C-282.66 530 -283.32 530 -284 530 C-284.165 530.578 -284.33 531.155 -284.5 531.75 C-286.545 538.749 -288.941 545.589 -291.438 552.438 C-291.82 553.493 -292.202 554.548 -292.596 555.635 C-295.677 564.136 -295.677 564.136 -297.069 567.859 C-299.375 574.066 -301.314 580.303 -303.062 586.688 C-304.775 592.926 -306.648 598.971 -309 605 C-309.958 607.754 -310.861 610.505 -311.648 613.312 C-315.914 628.358 -315.914 628.358 -321.25 630 C-322.158 630 -323.065 630 -324 630 C-324.809 622.881 -321.933 617.379 -319 611 C-323.968 615.332 -326.736 620.41 -329.812 626.188 C-330.073 626.672 -330.073 626.672 -331.394 629.123 C-337.034 639.725 -342.294 650.56 -346 662 C-348.164 667.754 -350.31 671.962 -355 676 C-356.32 675.34 -357.64 674.68 -359 674 C-358.249 668.496 -358.249 668.496 -357.057 666.125 C-352.785 657.535 -352.373 647.423 -351.663 638.018 C-350.859 627.427 -349.883 616.948 -347.912 606.502 C-347.216 602.713 -346.905 599.222 -347.062 595.375 C-347.276 589.855 -345.921 584.924 -344.422 579.656 C-343.303 575.655 -342.794 572.152 -343 568 C-343.208 568.623 -343.415 569.245 -343.629 569.887 C-347.086 580.258 -350.543 590.629 -354 601 C-355.98 601.33 -357.96 601.66 -360 602 C-361.343 597.971 -360.005 595.291 -358.688 591.438 C-356.919 586.061 -355.377 580.809 -354.457 575.211 C-354 573 -354 573 -353.039 570.137 C-351.973 566.92 -351.243 563.756 -350.562 560.438 C-350.302 559.204 -350.042 557.97 -349.773 556.699 C-349.295 554.411 -348.82 552.122 -348.352 549.832 C-346.454 541.024 -343.624 532.632 -340.717 524.12 C-338.093 516.359 -335.843 508.547 -333.922 500.586 C-332.438 494.815 -330.751 489.101 -329.069 483.385 C-327.775 478.937 -326.623 474.603 -326 470 C-326.66 470 -327.32 470 -328 470 C-328.075 470.632 -328.15 471.263 -328.227 471.914 C-329.272 479.028 -331.538 485.023 -334.477 491.566 C-337.569 498.536 -339.961 505.659 -342 513 C-343.619 518.274 -345.53 523.059 -348 528 C-348.683 530.329 -349.351 532.662 -350 535 C-350.667 536.333 -351.333 537.667 -352 539 C-352.268 540.031 -352.536 541.062 -352.812 542.125 C-354.581 548.622 -357.843 554.729 -362 560 C-363.65 559.67 -365.3 559.34 -367 559 C-367.335 554.196 -366.541 552.008 -364 548 C-363.286 545.681 -362.625 543.345 -362 541 C-360.393 535.737 -358.551 530.89 -356 526 C-353.767 521.161 -352.159 516.374 -350.746 511.234 C-350 509 -350 509 -348 506 C-347.533 504.133 -347.07 502.265 -346.633 500.391 C-345.238 495.123 -343.428 489.772 -340.93 484.922 C-339.96 482.918 -339.53 481.184 -339.125 479 C-338.381 475.414 -337.393 472.006 -336.215 468.539 C-336.037 468.013 -336.037 468.013 -335.137 465.349 C-334.762 464.244 -334.386 463.139 -334 462 C-333.248 459.758 -332.496 457.516 -331.746 455.273 C-331.366 454.139 -330.987 453.005 -330.596 451.836 C-330.213 450.694 -329.831 449.552 -329.438 448.375 C-329.051 447.225 -328.665 446.075 -328.268 444.891 C-326.292 438.98 -324.377 433.065 -322.647 427.077 C-321.281 422.691 -319.275 418.581 -317.312 414.438 C-315.997 410.993 -315.733 408.644 -316 405 C-316.182 405.557 -316.364 406.114 -316.551 406.688 C-316.802 407.451 -317.054 408.214 -317.312 409 C-317.556 409.743 -317.8 410.485 -318.051 411.25 C-320.747 419.061 -323.859 426.709 -326.938 434.375 C-327.152 434.911 -327.152 434.911 -328.24 437.625 C-331.71 446.28 -331.71 446.28 -333.172 449.907 C-333.351 450.35 -333.351 450.35 -334.254 452.594 C-334.411 452.983 -334.411 452.983 -335.205 454.951 C-335.865 456.653 -336.444 458.386 -337 460.125 C-338.325 463.933 -340.135 467.432 -342 471 C-343.98 471 -345.96 471 -348 471 C-347.587 463.994 -346.256 457.958 -343.875 451.375 C-341.149 443.536 -338.663 435.665 -336.375 427.688 C-334.395 420.784 -332.374 413.904 -330.188 407.062 C-328.717 402.42 -327.427 397.84 -326.457 393.07 C-325.208 387.414 -323.322 381.909 -321.438 376.438 C-320.198 372.784 -319.342 369.14 -318.554 365.367 C-318.034 363.143 -317.394 361.035 -316.656 358.875 C-316.391 358.092 -316.125 357.309 -315.852 356.502 C-315.571 355.676 -315.29 354.851 -315 354 C-314.426 352.282 -313.853 350.563 -313.281 348.844 C-312.094 345.281 -310.906 341.719 -309.719 338.156 C-309.575 337.725 -309.575 337.725 -308.848 335.541 C-308.294 333.882 -307.74 332.224 -307.184 330.566 C-305.736 326.247 -304.332 321.919 -303 317.562 C-302.661 316.456 -302.322 315.35 -301.973 314.211 C-301.113 311.374 -300.273 308.532 -299.438 305.688 C-297.789 300.182 -295.834 294.877 -293.5 289.625 C-292.02 286.049 -290.924 282.502 -289.852 278.791 C-289.034 276.112 -288.12 273.501 -287.148 270.875 C-285.062 265.186 -283.05 259.474 -281.062 253.75 C-280.889 253.251 -280.889 253.251 -280.011 250.724 C-277.276 242.837 -274.613 234.929 -272 227 C-271.48 225.437 -270.959 223.875 -270.438 222.312 C-270.204 221.613 -269.971 220.913 -269.73 220.191 C-265.154 206.461 -260.577 192.73 -256 179 C-266.537 182.61 -276.98 186.323 -287.293 190.535 C-291.329 192.13 -295.4 193.579 -299.5 195 C-305.53 197.09 -311.449 199.346 -317.358 201.759 C-321.819 203.566 -326.323 205.186 -330.875 206.75 C-339.3 209.656 -347.547 212.974 -355.81 216.312 C-363.065 219.24 -370.349 222.054 -377.695 224.746 C-381.176 226.067 -384.58 227.53 -388 229 C-389.598 229.6 -391.202 230.184 -392.812 230.75 C-397.911 232.578 -402.957 234.526 -408 236.5 C-416.001 239.626 -424.012 242.683 -432.168 245.383 C-435.484 246.484 -438.785 247.621 -442.078 248.789 C-442.929 249.091 -443.78 249.392 -444.656 249.703 C-446.402 250.324 -448.147 250.946 -449.891 251.57 C-450.736 251.869 -451.582 252.168 -452.453 252.477 C-453.208 252.745 -453.962 253.014 -454.739 253.292 C-461.123 255.292 -461.123 255.292 -464.812 254.062 C-467.463 251.564 -467.972 249.679 -467.736 246.041 C-465.281 239.232 -453.666 235.86 -447.5 233.25 C-445.716 232.49 -443.935 231.725 -442.156 230.953 C-441.381 230.625 -440.606 230.296 -439.807 229.958 C-438 229 -438 229 -437 227 C-438.207 227.289 -439.413 227.577 -440.656 227.875 C-442.271 228.25 -443.885 228.625 -445.5 229 C-446.291 229.191 -447.083 229.382 -447.898 229.578 C-454.752 231.151 -460.992 231.376 -468 230.5 C-468.763 230.407 -469.526 230.314 -470.312 230.219 C-470.869 230.147 -471.426 230.074 -472 230 C-472.66 230.99 -473.32 231.98 -474 233 C-474.718 232.905 -475.436 232.809 -476.176 232.711 C-500.836 230.07 -525.942 237.268 -548.395 246.934 C-551.553 248.226 -554.707 249.122 -558 250 C-558.33 250.33 -558.66 250.66 -559 251 C-561 251.041 -563 251.043 -565 251 C-566.348 246.955 -565.688 246.242 -563 243 C-560.117 241.368 -557.079 240.208 -554 239 C-552.664 238.403 -551.33 237.798 -550 237.188 C-547.051 235.865 -544.079 234.626 -541.074 233.438 C-527.961 228.232 -516.999 222.522 -506.887 212.551 C-504.611 210.54 -502.863 209.272 -500.258 207.859 C-497 206 -497 206 -495.188 202.938 C-492.409 199.207 -490.279 198.926 -485.828 198.129 C-482.916 196.966 -481.635 195.851 -479.387 193.727 C-474.649 189.396 -469.462 187.199 -463.562 184.812 C-461.585 183.986 -459.607 183.159 -457.629 182.332 C-457.154 182.136 -457.154 182.136 -454.75 181.146 C-450.802 179.501 -446.9 177.757 -443 176 C-440 174.667 -437 173.333 -434 172 C-439.723 173.559 -445.287 175.453 -450.875 177.438 C-469.791 184.131 -469.791 184.131 -475.188 185.062 C-478.102 185.597 -480.617 186.213 -483.438 187.188 C-486 188 -486 188 -489 187 C-488.67 184.03 -488.34 181.06 -488 178 C-496.859 180.215 -505.038 183.725 -513.02 188.109 C-515.723 189.325 -518.074 189.133 -521 189 C-521.165 188.175 -521.165 188.175 -522 184 C-516.351 180.576 -510.621 177.33 -504.812 174.188 C-487.549 164.76 -487.549 164.76 -481.745 159.43 C-476.404 155.052 -469.199 152.742 -462.875 150.125 C-461.193 149.422 -459.51 148.719 -457.828 148.016 C-457.008 147.673 -456.187 147.331 -455.342 146.979 C-447.689 143.781 -440.073 140.522 -432.562 137 C-424.609 133.295 -416.461 130.122 -408.285 126.945 C-403.612 125.112 -399.05 123.121 -394.5 121 C-386.918 117.467 -379.296 114.367 -371.344 111.777 C-362.592 108.875 -354.018 105.496 -345.504 101.965 C-340.501 99.912 -335.51 98.218 -330.316 96.715 C-326.042 95.396 -322.091 93.569 -318.125 91.5 C-314.934 89.968 -311.781 88.892 -308.418 87.816 C-305.919 86.973 -303.5 86.007 -301.062 85 C-296.82 83.263 -292.55 81.917 -288.129 80.711 C-286 80 -286 80 -283 78 C-281.703 77.499 -280.388 77.045 -279.062 76.625 C-275.404 75.451 -271.762 74.239 -268.125 73 C-263.32 71.394 -258.489 70.016 -253.594 68.715 C-248.287 67.252 -243.122 65.448 -238 63.438 C-234.42 62.063 -230.842 61.238 -227.078 60.527 C-225 60 -225 60 -223.189 59.023 C-220.723 57.871 -218.58 57.497 -215.891 57.102 C-210.218 56.134 -205.108 54.435 -199.75 52.375 C-197.83 51.657 -195.909 50.941 -193.988 50.227 C-193.498 50.043 -193.498 50.043 -191.014 49.114 C-173.796 42.749 -156.388 37.229 -138.736 32.215 C-130.663 29.918 -122.643 27.469 -114.641 24.938 C-105.196 21.978 -105.196 21.978 -100.688 21.062 C-95.836 20.055 -91.156 18.532 -86.44 17.032 C-80.628 15.185 -74.792 13.439 -68.936 11.74 C-65.269 10.674 -61.63 9.556 -58 8.375 C-53.065 6.888 -48.028 6.051 -42.955 5.197 C-37.154 4.22 -31.39 3.106 -25.625 1.938 C-24.777 1.768 -23.929 1.598 -23.055 1.424 C-19.519 0.716 -15.989 -0.003 -12.465 -0.77 C-11.986 -0.869 -11.986 -0.869 -9.562 -1.375 C-8.78 -1.548 -7.998 -1.72 -7.191 -1.898 C-4.391 -2.028 -2.512 -1.179 0 0 Z " fill="currentColor" transform="translate(590,193)"/>
<path d="M0 0 C0.254 5.34 -0.527 9.35 -2.312 14.375 C-2.775 15.693 -3.237 17.01 -3.699 18.328 C-4.128 19.54 -4.558 20.752 -5 22 C-5.546 23.707 -6.088 25.415 -6.625 27.125 C-7.708 30.398 -9.224 33.04 -11 36 C-12.12 38.962 -13.055 41.978 -14 45 C-16.068 51.454 -18.438 57.726 -21 64 C-21.668 65.666 -22.335 67.333 -23 69 C-23.995 71.491 -24.992 73.98 -26 76.465 C-27.747 80.784 -29.422 85.116 -31 89.5 C-32.879 94.719 -34.916 99.86 -37 105 C-37.646 106.625 -38.292 108.25 -38.938 109.875 C-40.433 113.625 -41.989 117.345 -43.562 121.062 C-45.374 125.375 -46.966 129.685 -48.324 134.16 C-49 136 -49 136 -51 139 C-51.496 140.653 -51.987 142.307 -52.438 143.973 C-54.099 149.96 -56.17 155.463 -59 161 C-59.706 162.986 -60.369 164.988 -61 167 C-62.658 172.259 -64.53 177.059 -67 182 C-67.701 184.323 -68.365 186.658 -69 189 C-69.963 192.012 -70.988 195.004 -72 198 C-72.615 199.842 -73.229 201.685 -73.843 203.527 C-74.281 204.843 -74.72 206.158 -75.159 207.473 C-76.076 210.218 -76.989 212.965 -77.883 215.719 C-79.363 220.268 -81.114 224.599 -83 229 C-83.472 230.36 -83.929 231.725 -84.375 233.094 C-86.301 238.938 -88.35 244.736 -90.395 250.539 C-92.088 255.357 -93.739 260.185 -95.32 265.041 C-96.38 268.096 -97.727 271.029 -99 274 C-100.984 279.508 -102.65 285.109 -104.254 290.738 C-104.987 292.962 -105.941 294.917 -107 297 C-107.438 298.584 -107.875 300.168 -108.305 301.754 C-109.571 305.845 -111.213 309.801 -112.77 313.789 C-114.611 318.594 -116.208 323.465 -117.742 328.375 C-118.793 331.667 -119.723 334.557 -121.562 337.5 C-123.016 340.027 -123.418 341.79 -123.938 344.625 C-124.688 348.349 -125.253 350.457 -129 352 C-131.188 351.875 -131.188 351.875 -133 351 C-134.365 346.904 -132.929 345.787 -131 342 C-130.489 340.052 -129.98 338.103 -129.527 336.141 C-128.275 331.057 -126.508 326.178 -124.438 321.375 C-122.983 317.959 -121.993 314.574 -121 311 C-120.347 309.328 -119.681 307.661 -119 306 C-118.326 304.003 -117.66 302.002 -117 300 C-107 270 -107 270 -106.004 267.016 C-105.321 264.965 -104.642 262.912 -103.965 260.859 C-103.626 259.833 -103.287 258.807 -102.938 257.75 C-102.637 256.837 -102.337 255.925 -102.027 254.984 C-101.261 252.757 -100.45 250.545 -99.616 248.342 C-98.023 244.104 -96.554 239.83 -95.109 235.539 C-94.559 233.915 -94.008 232.292 -93.457 230.668 C-92.609 228.164 -91.762 225.659 -90.917 223.154 C-86.11 208.897 -80.954 194.821 -75 181 C-74.539 179.717 -74.098 178.426 -73.688 177.125 C-70.029 165.92 -66.014 154.884 -61.574 143.965 C-59.415 138.594 -57.457 133.15 -55.472 127.713 C-53.695 122.856 -51.848 118.039 -49.895 113.25 C-48.875 110.685 -47.934 108.097 -47 105.5 C-45.121 100.281 -43.085 95.139 -41 90 C-40.332 88.334 -39.666 86.667 -39 85 C-35 75 -31 65 -27 55 C-26.671 54.176 -26.343 53.353 -26.004 52.504 C-25.33 50.822 -24.65 49.142 -23.965 47.465 C-22.315 43.405 -20.765 39.365 -19.438 35.188 C-18.342 31.787 -16.852 29.06 -15 26 C-14.317 23.671 -13.649 21.338 -13 19 C-12.67 18.505 -12.67 18.505 -11 16 C-10.67 14.824 -10.34 13.649 -10 12.438 C-9 9 -9 9 -7 7 C-6.505 5.824 -6.01 4.649 -5.5 3.438 C-3.284 -1.642 -3.284 -1.642 0 0 Z " fill="currentColor" transform="translate(893,393)"/>
<path d="M0 0 C3.894 3.449 4.543 6.91 5.426 11.793 C6 14 6 14 8.188 17.25 C10.353 20.536 10.722 21.465 9 25 C7.28 26.404 5.498 27.604 3.629 28.801 C2 30 2 30 1 32.25 C-0.789 35.382 -3.667 34.887 -7 35 C-9.938 34.062 -9.938 34.062 -12 33 C-12.247 33.577 -12.495 34.155 -12.75 34.75 C-14.228 37.411 -15.583 39.136 -18 41 C-20.75 40.75 -20.75 40.75 -23 40 C-22.552 34.36 -21.676 29.563 -19.746 24.254 C-18.995 21.985 -18.548 19.787 -18.125 17.438 C-16.482 9.782 -9.497 -2.567 0 0 Z " fill="currentColor" transform="translate(561,156)"/>
<path d="M0 0 C0.125 5.75 0.125 5.75 -1 8 C-1.128 9.602 -1.228 11.207 -1.312 12.812 C-1.765 17.351 -2.233 20.08 -6 23 C-8.125 23.199 -8.125 23.199 -10.5 23.25 C-14.617 23.446 -14.617 23.446 -16.367 25.98 C-17.375 28.438 -17.375 28.438 -18.148 30.871 C-19 33 -19 33 -22 35 C-24.48 34.758 -24.48 34.758 -27.188 34.125 C-28.089 33.921 -28.99 33.718 -29.918 33.508 C-30.262 33.424 -30.262 33.424 -32 33 C-32.245 33.645 -32.49 34.289 -32.742 34.953 C-34.921 38.499 -38.07 37.746 -42 38 C-43.325 34.433 -43.424 33.514 -40.938 30.5 C-38.985 28.838 -36.984 27.232 -34.938 25.688 C-31.814 22.829 -30.497 20.494 -28.859 16.672 C-28 15 -28 15 -26 14 C-24.46 13.93 -22.917 13.915 -21.375 13.938 C-20.966 13.942 -20.966 13.942 -18.898 13.965 C-18.585 13.971 -18.585 13.971 -17 14 C-16.625 13.252 -16.25 12.505 -15.863 11.734 C-8.529 -2.38 -8.529 -2.38 0 0 Z " fill="currentColor" transform="translate(455,193)"/>
<path d="M0 0 C2.992 1.364 5.29 2.949 7.75 5.125 C8.057 5.394 8.057 5.394 9.609 6.758 C11 8 11 8 10.812 10.188 C9.738 13.908 7.876 15.459 5 18 C4.34 18.639 3.68 19.279 3 19.938 C-0.005 21.534 -1.134 20.678 -4 19 C-8.868 15.19 -8.868 15.19 -9.312 11.188 C-7.342 6.402 -3.805 3.415 0 0 Z " fill="currentColor" transform="translate(69,444)"/>
<path d="M0 0 C0.25 4.75 0.25 4.75 -2 7 C-7.654 7.346 -7.654 7.346 -9 6 C-9.25 3.562 -9.25 3.562 -9 1 C-5.325 -1.45 -4.157 -0.924 0 0 Z " fill="currentColor" transform="translate(591,162)"/>
<path d="M0 0 C0 1.65 0 3.3 0 5 C-1.65 5.33 -3.3 5.66 -5 6 C-5.154 0 -5.154 0 0 0 Z " fill="currentColor" transform="translate(704,744)"/>
<path d="M0 0 C0.66 0.165 0.66 0.165 4 1 C3.67 2.32 3.34 3.64 3 5 C2.01 5 1.02 5 0 5 C-1 2 -1 2 -0 0 Z " fill="currentColor" transform="translate(944,209)"/>
</svg>