<svg xmlns="http://www.w3.org/2000/svg" viewBox="0 0 940 800">
<path d="M0 0 C0.91 -0.001 1.821 -0.002 2.759 -0.002 C3.768 0.002 4.776 0.006 5.815 0.01 C6.885 0.011 7.954 0.011 9.056 0.012 C12.682 0.015 16.307 0.025 19.933 0.035 C22.541 0.039 25.15 0.042 27.759 0.045 C33.452 0.052 39.145 0.063 44.839 0.076 C53.305 0.095 61.771 0.109 70.237 0.122 C84.476 0.143 98.715 0.169 112.954 0.197 C127.059 0.225 141.163 0.252 155.268 0.275 C155.706 0.276 155.706 0.276 157.923 0.28 C162.371 0.287 166.82 0.294 171.269 0.302 C202.802 0.354 234.336 0.41 265.87 0.47 C296.51 0.527 327.15 0.583 357.79 0.636 C358.734 0.637 359.677 0.639 360.65 0.641 C370.13 0.657 379.609 0.673 389.089 0.689 C408.401 0.722 427.713 0.756 447.025 0.789 C447.913 0.791 448.801 0.793 449.716 0.794 C509.044 0.897 568.371 1.007 627.699 1.118 C627.369 2.768 627.039 4.418 626.699 6.118 C626.039 6.118 625.379 6.118 624.699 6.118 C624.369 7.108 624.039 8.098 623.699 9.118 C622.078 10.828 620.403 12.489 618.699 14.118 C616.929 15.899 615.16 17.68 613.391 19.462 C611.869 20.99 610.347 22.519 608.825 24.047 C607.784 25.093 606.743 26.14 605.704 27.189 C604.185 28.719 602.663 30.247 601.141 31.774 C600.24 32.68 599.34 33.585 598.412 34.518 C595.699 37.118 595.699 37.118 592.797 39.452 C590.469 41.357 588.527 43.385 586.576 45.674 C582.111 50.899 577.232 55.697 572.358 60.534 C570.63 62.249 568.907 63.966 567.183 65.685 C562.906 69.949 558.623 74.207 554.341 78.466 C550.71 82.077 547.082 85.689 543.456 89.305 C541.771 90.984 540.082 92.66 538.393 94.336 C533.458 99.248 528.601 104.179 524.1 109.5 C520.101 114.118 520.101 114.118 517.699 114.118 C517.369 115.108 517.039 116.098 516.699 117.118 C514.088 118.424 512.183 118.241 509.258 118.238 C508.102 118.239 506.947 118.241 505.756 118.242 C504.482 118.239 503.208 118.235 501.896 118.231 C500.546 118.231 499.196 118.231 497.846 118.232 C494.175 118.232 490.503 118.226 486.832 118.219 C482.998 118.213 479.163 118.212 475.329 118.211 C468.065 118.208 460.801 118.2 453.538 118.19 C445.269 118.179 437.001 118.173 428.733 118.168 C411.722 118.158 394.71 118.14 377.699 118.118 C377.7 118.841 377.7 119.563 377.701 120.308 C377.732 163.138 377.727 205.968 377.674 248.798 C377.668 253.94 377.662 259.082 377.656 264.224 C377.655 265.247 377.654 266.271 377.653 267.326 C377.635 283.904 377.642 300.482 377.657 317.06 C377.673 334.069 377.662 351.078 377.627 368.087 C377.606 378.583 377.605 389.08 377.632 399.576 C377.647 406.773 377.638 413.969 377.608 421.166 C377.591 425.319 377.586 429.471 377.611 433.624 C377.634 437.429 377.624 441.231 377.59 445.035 C377.579 447.059 377.603 449.084 377.629 451.108 C377.509 459.445 375.998 463.628 369.699 469.118 C368.764 470.086 367.836 471.062 366.917 472.046 C362.211 476.792 362.211 476.792 359.882 479.121 C358.367 480.638 356.86 482.163 355.353 483.688 C354.39 484.655 353.426 485.621 352.461 486.587 C351.594 487.457 350.728 488.328 349.835 489.225 C347.699 491.118 347.699 491.118 345.699 491.118 C345.586 491.407 345.586 491.407 345.012 492.868 C343.352 495.713 341.279 497.054 338.699 499.118 C337.72 500.204 336.765 501.311 335.824 502.43 C330.4 508.791 324.335 514.559 318.399 520.435 C312.282 526.492 312.282 526.492 310.012 528.93 C308.699 530.118 308.699 530.118 306.699 530.118 C306.039 531.438 305.379 532.758 304.699 534.118 C304.039 534.118 303.379 534.118 302.699 534.118 C302.596 534.396 302.596 534.396 302.074 535.805 C300.564 538.346 298.761 539.883 296.43 541.676 C294.609 543.193 292.949 544.828 291.285 546.514 C289.304 548.517 287.302 550.498 285.301 552.481 C283.642 554.131 281.983 555.78 280.324 557.43 C279.912 557.839 279.912 557.839 277.824 559.905 C273.432 564.28 269.201 568.722 265.16 573.423 C263.466 575.388 261.71 577.273 259.887 579.118 C259.323 579.695 258.76 580.273 258.18 580.868 C256.699 582.118 256.699 582.118 254.699 582.118 C254.575 582.407 254.575 582.407 253.949 583.868 C252.492 586.49 251.015 588.21 248.699 590.118 C247.379 590.118 246.059 590.118 244.699 590.118 C244.369 434.688 244.039 279.258 243.699 119.118 C199.149 118.788 154.599 118.458 108.699 118.118 C106.059 115.808 103.419 113.498 100.699 111.118 C99.945 110.48 99.191 109.842 98.414 109.184 C95.186 106.453 92.229 103.678 89.496 100.446 C85.53 95.862 81.303 91.581 77.013 87.303 C76.173 86.461 75.334 85.619 74.468 84.752 C72.187 82.467 69.904 80.185 67.619 77.903 C65.217 75.504 62.817 73.101 60.417 70.7 C56.39 66.671 52.361 62.644 48.33 58.619 C43.682 53.976 39.038 49.33 34.396 44.682 C30.394 40.676 26.39 36.671 22.385 32.669 C19.999 30.285 17.615 27.9 15.232 25.514 C12.575 22.855 9.916 20.2 7.256 17.545 C6.475 16.762 5.694 15.979 4.889 15.172 C0.972 11.27 -2.984 7.574 -7.301 4.118 C-5.846 -0.246 -4.219 -0.008 0 0 Z " fill="currentColor" transform="translate(83.3007994890213,98.88221353292465)"/>
      <path d="M0 0 C0.99 0.33 1.98 0.66 3 1 C3.034 56.906 3.066 112.813 3.085 168.719 C3.085 169.132 3.085 169.132 3.086 171.225 C3.092 189.195 3.097 207.166 3.102 225.137 C3.105 233.949 3.107 242.761 3.11 251.574 C3.11 252.451 3.11 253.328 3.111 254.231 C3.119 282.674 3.134 311.116 3.153 339.559 C3.171 368.779 3.184 397.999 3.188 427.218 C3.188 431.342 3.189 435.466 3.19 439.59 C3.19 439.995 3.19 439.995 3.19 442.049 C3.193 455.133 3.202 468.217 3.214 481.301 C3.225 494.443 3.23 507.585 3.227 520.728 C3.225 528.543 3.23 536.358 3.242 544.174 C3.25 549.999 3.248 555.824 3.242 561.649 C3.241 564.013 3.244 566.378 3.25 568.743 C3.258 571.942 3.254 575.141 3.246 578.34 C3.249 578.806 3.249 578.806 3.262 581.162 C3.258 582.013 3.253 582.863 3.248 583.739 C3.249 584.471 3.249 585.203 3.249 585.957 C2.962 588.315 2.166 589.947 1 592 C-7.299 592.79 -11.209 587.962 -16.145 582.078 C-17.999 580.001 -19.938 578.234 -22.062 576.438 C-25.265 573.729 -27.905 570.856 -30.566 567.625 C-32.801 565.092 -35.374 563.123 -38 561 C-39.682 559.347 -41.344 557.679 -43 556 C-44.32 554.674 -45.64 553.348 -46.961 552.023 C-47.331 551.651 -47.331 551.651 -49.206 549.768 C-52.563 546.398 -55.923 543.03 -59.283 539.662 C-61.052 537.888 -62.82 536.114 -64.587 534.338 C-67.148 531.765 -69.712 529.194 -72.277 526.625 C-73.062 525.835 -73.846 525.046 -74.655 524.232 C-77.852 521.035 -81.015 517.915 -84.545 515.086 C-87 513 -87 513 -87 511 C-87.558 510.768 -88.117 510.536 -88.692 510.298 C-91.605 508.66 -93.582 506.625 -95.922 504.238 C-96.386 503.769 -96.849 503.301 -97.327 502.817 C-98.806 501.32 -100.279 499.817 -101.75 498.312 C-107.463 492.49 -113.154 486.705 -119.36 481.402 C-121.312 479.733 -123.174 477.992 -125 476.188 C-125.577 475.624 -126.155 475.061 -126.75 474.48 C-128 473 -128 473 -128 471 C-129.32 470.34 -130.64 469.68 -132 469 C-132 468.34 -132 467.68 -132 467 C-133.32 466.34 -134.64 465.68 -136 465 C-136 464.34 -136 463.68 -136 463 C-136.583 462.742 -137.166 462.485 -137.767 462.22 C-140.194 460.894 -141.783 459.452 -143.724 457.488 C-144.438 456.77 -145.153 456.052 -145.889 455.312 C-146.653 454.535 -147.416 453.758 -148.203 452.957 C-148.601 452.556 -148.601 452.556 -150.617 450.527 C-153.166 447.96 -155.709 445.387 -158.25 442.812 C-160.778 440.257 -163.307 437.703 -165.84 435.151 C-167.415 433.565 -168.986 431.975 -170.555 430.383 C-174.65 426.251 -178.84 422.319 -183.249 418.525 C-185.406 416.646 -187.433 414.665 -189.438 412.625 C-190.188 411.867 -190.938 411.109 -191.711 410.328 C-193.237 408.776 -194.763 407.224 -196.289 405.672 C-199.723 402.203 -203.156 398.806 -206.867 395.633 C-212.242 391.014 -217.153 385.918 -222.125 380.875 C-227.573 375.351 -232.964 369.89 -239 365 C-240.214 363.531 -241.426 362.061 -242.617 360.573 C-244.132 358.85 -245.752 357.437 -247.508 355.961 C-253.749 350.566 -259.435 344.609 -265.223 338.738 C-272.776 331.119 -272.776 331.119 -276.781 327.719 C-283.886 321.634 -290.299 314.752 -296.873 308.106 C-308.945 295.914 -308.945 295.914 -315.023 290.754 C-320.066 286.279 -324.704 281.343 -329.437 276.543 C-338.581 267.28 -338.581 267.28 -342.875 263.625 C-343.166 263.366 -343.166 263.366 -344.637 262.058 C-345.913 260.947 -347.199 259.844 -348.53 258.8 C-360.218 249.576 -361.859 242.117 -361.34 227.645 C-361.321 225.807 -361.307 223.97 -361.298 222.132 C-361.261 217.335 -361.143 212.543 -361.009 207.748 C-360.913 203.818 -360.874 199.888 -360.838 195.956 C-360.762 187.85 -360.651 179.744 -360.433 171.64 C-360.42 170.891 -360.407 170.143 -360.393 169.372 C-360.231 164.231 -360.231 164.231 -358 162 C-355.442 161.791 -352.992 161.706 -350.433 161.709 C-349.652 161.703 -348.871 161.696 -348.067 161.689 C-345.477 161.67 -342.887 161.666 -340.297 161.664 C-338.498 161.658 -336.699 161.651 -334.9 161.644 C-331.124 161.632 -327.348 161.628 -323.572 161.629 C-318.738 161.63 -313.906 161.602 -309.072 161.568 C-305.354 161.546 -301.636 161.542 -297.918 161.543 C-296.137 161.54 -294.355 161.531 -292.574 161.516 C-290.077 161.496 -287.582 161.502 -285.085 161.514 C-284.352 161.503 -283.62 161.492 -282.865 161.48 C-276.192 161.562 -272.144 164.611 -267.57 169.164 C-267.287 169.446 -267.287 169.446 -265.852 170.875 C-265.282 171.452 -264.712 172.03 -264.125 172.625 C-263.829 172.918 -263.829 172.918 -262.328 174.398 C-258 178.747 -258 178.747 -258 181 C-257.407 181.254 -256.814 181.508 -256.203 181.77 C-253.756 183.136 -252.507 184.517 -250.75 186.688 C-247.707 190.292 -244.452 193.343 -240.867 196.398 C-234 202.289 -234 202.289 -234 205 C-233.423 205.25 -232.847 205.5 -232.253 205.757 C-229.685 207.174 -228 208.789 -225.953 210.887 C-225.572 211.274 -225.572 211.274 -223.641 213.232 C-222.852 214.043 -222.063 214.853 -221.25 215.688 C-212.464 224.672 -212.464 224.672 -208.246 228.262 C-202.106 233.531 -196.509 239.386 -190.812 245.125 C-189.639 246.304 -188.465 247.482 -187.291 248.66 C-185.135 250.824 -182.98 252.99 -180.827 255.157 C-179.077 256.918 -177.324 258.676 -175.568 260.432 C-173.012 262.988 -170.462 265.55 -167.912 268.113 C-165.216 270.823 -162.517 273.53 -159.818 276.237 C-158.402 277.658 -156.987 279.079 -155.573 280.502 C-153.514 282.574 -151.45 284.643 -149.387 286.711 C-148.766 287.337 -148.144 287.963 -147.505 288.609 C-143.748 292.365 -139.876 295.925 -135.841 299.381 C-132.767 302.085 -129.922 305.011 -127.062 307.938 C-121.133 314 -121.133 314 -120 314 C-119.999 313.51 -119.999 313.51 -119.993 311.031 C-119.934 287.204 -119.858 263.376 -119.764 239.549 C-119.719 228.027 -119.68 216.504 -119.654 204.981 C-119.631 194.939 -119.597 184.898 -119.551 174.856 C-119.527 169.538 -119.509 164.219 -119.502 158.901 C-119.496 153.897 -119.476 148.893 -119.446 143.888 C-119.437 142.05 -119.433 140.213 -119.435 138.375 C-119.437 135.867 -119.42 133.36 -119.399 130.852 C-119.401 130.488 -119.401 130.488 -119.413 128.644 C-119.32 121.95 -116.706 118.445 -112.099 113.887 C-111.321 113.113 -110.543 112.338 -109.741 111.54 C-108.904 110.716 -108.066 109.892 -107.203 109.043 C-106.77 108.612 -106.77 108.612 -104.576 106.431 C-101.805 103.679 -99.028 100.933 -96.25 98.188 C-93.487 95.452 -90.725 92.715 -87.967 89.976 C-86.252 88.273 -84.535 86.573 -82.815 84.877 C-78.58 80.677 -74.538 76.399 -70.651 71.877 C-67.975 68.834 -65.104 66 -62.219 63.156 C-61.602 62.543 -60.984 61.929 -60.349 61.297 C-57.747 58.713 -55.14 56.134 -52.534 53.554 C-40.021 41.16 -40.021 41.16 -34.933 35.16 C-29.842 29.471 -24.29 24.19 -18.875 18.812 C-17.6 17.543 -16.325 16.272 -15.051 15.002 C-12.711 12.67 -10.37 10.34 -8.027 8.011 C-5.346 5.346 -2.672 2.674 0 0 Z " fill="currentColor" transform="translate(871,102)"/>
</svg>
