<svg xmlns="http://www.w3.org/2000/svg" viewBox="0 0 230 188">
<path d="M 221 27 L 220 27 L 216 31 L 216 32 L 193 56 L 193 107 L 192 108 L 162 77 L 162 76 L 142 56 L 126 56 L 125 57 L 125 179 L 152 150 L 152 109 L 153 108 L 172 127 L 172 128 L 188 144 L 188 145 L 189 145 L 191 147 L 191 148 L 209 166 L 209 167 L 220 178 L 221 178 Z M 8 8 L 10 10 L 10 11 L 38 39 L 79 39 L 80 40 L 80 150 L 89 159 L 89 160 L 101 172 L 103 173 L 103 174 L 108 179 L 108 42 L 110 39 L 153 39 L 170 22 L 170 21 L 182 9 L 182 8 Z" fill="currentColor" fill-rule="evenodd"/>
</svg>
